<?xml version="1.0" encoding="utf-8" ?>
<svg baseProfile="full" height="200mm" version="1.1" viewBox="0,0,200,200" width="200mm" xmlns="http://www.w3.org/2000/svg" xmlns:ev="http://www.w3.org/2001/xml-events" xmlns:xlink="http://www.w3.org/1999/xlink"><defs /><rect fill="#1a1a1a" height="200" width="200" x="0" y="0" /><rect fill="#1a1a1a" height="200" width="180" x="10" y="0" /><text alignment-baseline="middle" fill="#e1ed5e" style="dominant-baseline: central; font-size:9.0px; font-family:Arial;" text-anchor="middle" x="100.0" y="100.0">2022</text><line stroke="#e1ed5e" stroke-width="0.3" x1="100.0" x2="100.0" y1="15.0" y2="10.0" /><path d="M 100.0 14.0 a86.0,86.0 0 0,1 42.46469731375804,11.215312516191453" fill="none" id="id73" stroke="none" /><text fill="#e1ed5e" style="font-size:6.75px; font-family:Arial;" text-anchor="middle"><textPath startOffset="22.20632615414155" xlink:href="#id73">January</textPath></text><path d="M 100.0 79.0 l 0.0 -0.8420281856706424 a21.842028185670642,21.842028185670642 0 0,0 0.37597461032572843,0.003236132170494245 l -0.014494131053200063 0.841903430108707" fill="#ff0600" stroke="none" /><path d="M 100.72285384407766 79.0124445844662 l 0.22812318426491862 -6.623396984817904 a27.62732433231497,27.62732433231497 0 0,0 0.475136259960421,0.020460366829568127 l -0.3421002766146712 6.618488891464141" fill="#ff5708" stroke="none" /><path d="M 101.08401301168833 79.027996857942 l 0.27621179282401037 -5.34376850140994 a26.35090223711442,26.35090223711442 0 0,0 0.4527812178318121,0.027312999551486288 l -0.36815505949543437 5.33822223247815" fill="#ff4606" stroke="none" /><path d="M 101.44485096284872 79.0497635885617 l 1.212803370151685 -17.585562787161532 a38.62733418744456,38.62733418744456 0 0,0 0.6629366761873552,0.0514566450596344 l -1.5153302357013811 17.562080879913434" fill="#ffe615" stroke="none" /><path d="M 101.80526077348638 79.07773832637324 l 0.5753261295646503 -6.667803348532324 a27.69257810190204,27.69257810190204 0 0,0 0.4745649059507373,0.04506565607635247 l -0.6900161626056319 6.656912147940793" fill="#ff5808" stroke="none" /><path d="M 102.16513564639614 79.11191278185805 l 0.5497795138224745 -5.30398289575361 a26.33240021681285,26.33240021681285 0 0,0 0.4504511873517574,0.05061343940867594 l -0.6409974046839572 5.293733502874334" fill="#ff4506" stroke="none" /><path d="M 102.52436894288641 79.15227682838746 l 2.0303158330487374 -16.767542065362303 a37.89001626096383,37.89001626096383 0 0,0 0.646810131721607,0.0839745186725421 l -2.3186406932781907 16.730109223525623" fill="#ffdd14" stroke="none" /><path d="M 102.88285421437855 79.19881850522331 l 1.1947750213752575 -8.620877164407625 a29.703275845077364,29.703275845077364 0 0,0 0.5058482297658999,0.07454887978684921 l -1.342992231569813 8.599033800459807" fill="#ff730a" stroke="none" /><path d="M 103.2404852339499 79.25152402106235 l 0.8207909262726609 -5.255435401796237 a26.31914457475116,26.31914457475116 0 0,0 0.4470128661534387,0.07376095306935279 l -0.9111329985649748 5.240528185787259" fill="#ff4506" stroke="none" /><path d="M 103.59715602781102 79.31037775812273 l 0.9132493897629673 -5.25270095062258 a26.331499950724353,26.331499950724353 0 0,0 0.4458861833883955,0.0814828499814702 l -1.0035306942542637 5.236202619290371" fill="#ff4506" stroke="none" /><path d="M 103.95276090670814 79.375362276772 l 1.4142524309239897 -7.379258377986086 a28.513558687296737,28.513558687296737 0 0,0 0.4812458564004011,0.09653339146795938 l -1.5410646967915163 7.353821030440919" fill="#ff6309" stroke="none" /><path d="M 104.307194497241 79.44645832069477 l 1.383724966002136 -6.603010098484706 a27.74643884892086,27.74643884892086 0 0,0 0.46661222658693396,0.1019833597640496 l -1.4971799167425979 6.578213240624787" fill="#ff5908" stroke="none" /><path d="M 104.66035177308747 79.52364482259891 l 1.158352547711375 -5.0894952446630155 a26.219649650142898,26.219649650142898 0 0,0 0.4392119849076966,0.10394728645755426 l -1.2457882195815952 5.068802046064593" fill="#ff4406" stroke="none" /><path d="M 105.01212808612495 79.60689891045804 l 6.199311404082591 -25.223454384372825 a46.974104661476304,46.974104661476304 0 0,0 0.7835529202330704,0.19974508590094534 l -6.632573213000686 25.11300630230301" fill="#b6ff1f" stroke="none" /><path d="M 105.36241919743992 79.69619591428918 l 0.42754816115194993 -1.6188316842852273 a22.674339706317138,22.674339706317138 0 0,0 0.37650429124054335,0.10291284532803847 l -0.45535034161620414 1.611232298130895" fill="#ff1202" stroke="none" /><path d="M 105.71112130821622 79.79150937346287 l 3.456812781584404 -12.231743106882268 a33.71082585986006,33.71082585986006 0 0,0 0.5570469686663572,0.16261728538735276 l -3.6668499679741884 12.170427492576213" fill="#ffa80f" stroke="none" /><path d="M 106.0581310904928 79.89281104454417 l 1.5218345310973 -5.05103207880928 a26.27531092933872,26.27531092933872 0 0,0 0.43193436520865036,0.13420410981908115 l -1.6085542690166685 5.024087834107679" fill="#ff4406" stroke="none" /><path d="M 106.40334571778207 80.00007090966166 l 2.258660774217548 -7.054601971284206 a28.40735833251207,28.40735833251207 0 0,0 0.4644159090603043,0.1531106234900188 l -2.37975950552027 7.014677623534951" fill="#ff6209" stroke="none" /><path d="M 106.74666289553966 80.11325718540242 l 1.6849037590999345 -4.966492063316422 a26.244515620380408,26.244515620380408 0 0,0 0.4265583559942072,0.1488178347135035 l -1.7701441191574154 4.936753375430711" fill="#ff4406" stroke="none" /><path d="M 107.08798089147638 80.2323363322302 l 1.88832486687836 -5.266347558699817 a26.594657041490095,26.594657041490095 0 0,0 0.42958941469001155,0.15822140688453756 l -1.9786966073409482 5.233062884008955" fill="#ff4906" stroke="none" /><path d="M 107.4271985657038 80.35727306442388 l 3.253361106233157 -8.604170639472608 a30.198701586675867,30.198701586675867 0 0,0 0.4846414680886207,0.1880333602614281 l -3.4009857393214444 8.546894575320634" fill="#ff7a0b" stroke="none" /><path d="M 107.76421540070413 80.48803036053334 l 6.515054375183535 -16.372748128101513 a38.62137380506553,38.62137380506553 0 0,0 0.6155807995815215,0.2511108644626844 l -6.795919044353444 16.258176377455246" fill="#ffe615" stroke="none" /><path d="M 108.09893153111575 80.62456947434976 l 3.59443862736615 -8.599133803721882 a30.320144377648568,30.320144377648568 0 0,0 0.479803640135013,0.20542687877562724 l -3.741926025291478 8.535987396983463" fill="#ff7c0b" stroke="none" /><path d="M 108.76106565485865 80.91482961587045 l 2.8617265042311195 -6.234006235958466 a27.859468808514833,27.859468808514833 0 0,0 0.4341059626554896,0.20381857019221303 l -2.968610678186207 6.18382268312625" fill="#ff5a08" stroke="none" /><path d="M 109.08828744355905 81.06846463323043 l 8.914551309049903 -18.569630905079496 a41.59855375973194,41.59855375973194 0 0,0 0.6428536164687736,0.31544547771862363 l -9.232876192529108 18.41343026722604" fill="#f4ff19" stroke="none" /><path d="M 109.41281617654863 81.2277094730956 l 7.0296260002633515 -14.019415560371735 a36.68310091652705,36.68310091652705 0 0,0 0.5620191906007566,0.287888058369501 l -7.269905678452863 13.896334976689735" fill="#ffce13" stroke="none" /><path d="M 109.73455568895987 81.39251694778311 l 3.857246939460798 -7.373079917312721 a29.321097368680398,29.321097368680398 0 0,0 0.4451989112966403,0.23780984019998627 l -3.983590897285749 7.30559135061098" fill="#ff6e0a" stroke="none" /><line stroke="#e1ed5e" stroke-width="0.3" x1="143.23703022742887" x2="145.7803849466894" y1="26.81831364943548" y2="22.513508569990506" /><path d="M 143.74570117128098 25.957352633546492 a86.0,86.0 0 0,1 28.547481713284135,27.462654790039103" fill="none" id="id74" stroke="none" /><text fill="#e1ed5e" style="font-size:6.75px; font-family:Arial;" text-anchor="middle"><textPath startOffset="19.985693538727396" xlink:href="#id74">February</textPath></text><path d="M 110.68208982089419 81.91981866633111 l 12.814528451326805 -21.68948230076323 a46.19217699812753,46.19217699812753 0 0,0 0.6810881067909228,0.4103479635946898 l -13.185978624335366 21.465687727709927" fill="#bfff1e" stroke="none" /><path d="M 110.99172775467656 82.1063720568725 l 3.8860475162241728 -6.326165456112702 a28.424401300877108,28.424401300877108 0 0,0 0.4146996268511272,0.259684868289559 l -3.994366295447563 6.258336246500199" fill="#ff6209" stroke="none" /><path d="M 111.2981086023043 82.29822771554956 l 2.5896240292763646 -4.057399028651733 a25.813381294964028,25.813381294964028 0 0,0 0.37249074801797044,0.2422783440151298 l -2.659081803078615 4.012221760477075" fill="#ff3e05" stroke="none" /><path d="M 111.60114157652 82.49532879139004 l 0.2936356746917932 -0.443059496058666 a21.531529516113135,21.531529516113135 0 0,0 0.3071783412035466,0.20740818719520318 l -0.3012187103018817 0.43793939656479275" fill="#ff0100" stroke="none" /><path d="M 111.90073688211348 82.69761687909136 l 0.254176376967737 -0.36954493643079867 a21.448518774021878,21.448518774021878 0 0,0 0.30239231004968214,0.21184513780925843 l -0.2604998266010701 0.3651149558576046" fill="#ff0000" stroke="none" /><path d="M 113.06298171725822 83.55741782278167 l 3.521115328629024 -4.432083684994824 a26.660531684241647,26.660531684241647 0 0,0 0.3568659451859062,0.2885607759773624 l -3.596884672379421 4.370816811753332" fill="#ff4a06" stroke="none" /><path d="M 113.6212207817346 84.01681056812373 l 3.3069282204667245 -3.880361461889926 a26.098331033803095,26.098331033803095 0 0,0 0.33941028810958246,0.2943332572441121 l -3.373232307223071 3.8228632112261427" fill="#ff4206" stroke="none" /><path d="M 113.89432698308785 84.25364557470407 l 3.135466372725842 -3.5534045552284685 a25.738969646200847,25.738969646200847 0 0,0 0.32969047740135027,0.2959993658483081 l -3.1961678377231824 3.498906180610863" fill="#ff3d05" stroke="none" /><path d="M 114.16331599549186 84.49514656593476 l 1.2486735034815302 -1.3669468127834097 a22.851412732827438,22.851412732827438 0 0,0 0.2881368540858457,0.267791803584019 l -1.2720182413622227 1.3452504231247502" fill="#ff1402" stroke="none" /><path d="M 114.42810811169701 84.74124197986012 l 1.3341485443030525 -1.410957669768094 a22.941842909234257,22.941842909234257 0 0,0 0.28460640477462623,0.27379113589983145 l -1.3582381926900968 1.3877834471059605" fill="#ff1502" stroke="none" /><path d="M 114.68862486808459 84.99185889309783 l 3.677743887464707 -3.7577444937032363 a26.25798856804967,26.25798856804967 0 0,0 0.32030269670238265,0.3189272151308808 l -3.7418823843344122 3.693881427922237" fill="#ff4406" stroke="none" /><path d="M 114.94478906791727 85.2469230424477 l 3.7565959393544675 -3.7084062371078046 a26.278663644426924,26.278663644426924 0 0,0 0.31501327340134055,0.3246488686885649 l -3.819873476458917 3.6431931728691254" fill="#ff4506" stroke="none" /><path d="M 115.19652480421416 85.50635884689758 l 4.57126801915827 -4.3598335236461585 a27.31701192470681,27.31701192470681 0 0,0 0.32160276256714593,0.3430634040024789 l -4.645638103695879 4.280500702765624" fill="#ff5307" stroke="none" /><path d="M 115.4437574822437 85.77008943001954 l 9.428941316711647 -8.687846326301397 a33.821217108504975,33.821217108504975 0 0,0 0.3908063530230698,0.43153813597025475 l -9.577091310350752 8.524255403061593" fill="#ffa90f" stroke="none" /><path d="M 115.9244219780498 86.31012108654704 l 6.055345026234974 -5.205648299360656 a28.985360204986694,28.985360204986694 0 0,0 0.321998900003632,0.3811451339230343 l -6.144054539725723 5.100644215808516" fill="#ff6a09" stroke="none" /><path d="M 116.15771136456269 86.58626213691792 l 5.152736670261678 -4.277676300368246 a27.69695525771164,27.69695525771164 0 0,0 0.3013712400609212,0.36944550577815105 l -5.225606402399008 4.188346624981994" fill="#ff5808" stroke="none" /><path d="M 116.38621287248628 86.86637796730983 l 4.930131348759625 -3.951522063700697 a27.318284714694,27.318284714694 0 0,0 0.2909344238863618,0.36945717348235935 l -4.997419853239951 3.866072496265299" fill="#ff5307" stroke="none" /><path d="M 116.60985879189232 87.15038557335679 l 4.140392390040666 -3.2030643037735946 a26.234736868039814,26.234736868039814 0 0,0 0.2732461026157045,0.3595598414941424 l -4.194914432880483 3.131319686398419" fill="#ff4406" stroke="none" /><path d="M 116.82858285166822 87.43820079747576 l 4.461548045284415 -3.330349986762055 a26.567462796885778,26.567462796885778 0 0,0 0.27040286144513287,0.3688291991263135 l -4.518213519243174 3.253058343964248" fill="#ff4906" stroke="none" /><path d="M 117.04232023915458 87.72973835380427 l 6.847470580489763 -4.9300948731265715 a29.43763526165369,29.43763526165369 0 0,0 0.2925363324725403,0.4137718962923109 l -6.931319532766186 4.811496476502467" fill="#ff700a" stroke="none" /><path d="M 117.2510076193507 88.02491185347247 l 8.787889735837004 -6.100267099213858 a31.697675667685033,31.697675667685033 0 0,0 0.30727958386229376,0.4508948730087815 l -8.89159378536803 5.94809420293467" fill="#ff8e0d" stroke="none" /><path d="M 117.65298651832404 88.62581576622439 l 6.478926147901422 -4.174506085231703 a28.707333201931604,28.707333201931604 0 0,0 0.2640697409516864,0.41769491370010814 l -6.549823485099064 4.062363523817388" fill="#ff6609" stroke="none" /><line stroke="#e1ed5e" stroke-width="0.3" x1="172.23445277983987" x2="176.4835382374775" y1="55.19839476539836" y2="52.563006222186495" /><path d="M 173.08426987136738 54.67131705675599 a86.0,86.0 0 0,1 12.851231095245387,41.99856678651699" fill="none" id="id75" stroke="none" /><text fill="#e1ed5e" style="font-size:6.75px; font-family:Arial;" text-anchor="middle"><textPath startOffset="22.20632615414155" xlink:href="#id75">March</textPath></text><path d="M 117.84615892207809 88.93136811851018 l 7.753845630134134 -4.809128021362448 a30.124134719621566,30.124134719621566 0 0,0 0.26951661924354015,0.4430144574128857 l -7.835478047663899 4.674945790742481" fill="#ff790b" stroke="none" /><path d="M 118.03404312379186 89.2402003453031 l 4.451895580030609 -2.656171120139152 a26.184073617818072,26.184073617818072 0 0,0 0.22760234866140122,0.38904619224764103 l -4.496957603162338 2.5791455155376157" fill="#ff4306" stroke="none" /><path d="M 118.21658344932153 89.55222093294921 l 4.5436255923971 -2.6059110636649434 a26.23787227752045,26.23787227752045 0 0,0 0.22132564679561217,0.39371362947006755 l -4.587808880485144 2.5273139242600817" fill="#ff4406" stroke="none" /><path d="M 118.3937258080291 89.86733742301442 l 5.241477701454427 -2.8874044066943982 a26.98416182122795,26.98416182122795 0 0,0 0.22061723971824565,0.4087702392460402 l -5.290403040391137 2.7967531841158997" fill="#ff4e07" stroke="none" /><path d="M 118.56541770881063 90.18545643968196 l 10.529155174906672 -5.566201296318151 a32.90989947767813,32.90989947767813 0 0,0 0.26044356423042475,0.5030940685716528 l -10.623408172297212 5.384134505486153" fill="#ff9e0e" stroke="none" /><path d="M 118.73160827565052 90.50648371742162 l 10.909588084875585 -5.52917563702323 a33.230735685424264,33.230735685424264 0 0,0 0.25419928333596536,0.5124502437547821 l -11.003147381164958 5.340565804769498" fill="#ffa20f" stroke="none" /><path d="M 118.89224826269711 90.83032412892265 l 4.248633343780205 -2.062146871870196 a25.72264068197497,25.72264068197497 0 0,0 0.18990879383299616,0.39999635259295757 l -4.283500331454958 1.988708103636698" fill="#ff3d05" stroke="none" /><path d="M 119.04729006885535 91.15688171328212 l 4.13877321365573 -1.9215153944708405 a25.563076278703065,25.563076278703065 0 0,0 0.18186020796797447,0.4007048617733615 l -4.171235738587051 1.8499885238554163" fill="#ff3b05" stroke="none" /><path d="M 119.196687751892 91.48605970444005 l 4.306711722613167 -1.910073599697049 a25.711278703064945,25.711278703064945 0 0,0 0.1759499814978316,0.406116816170424 l -4.338952413953678 1.835657638940022" fill="#ff3d05" stroke="none" /><path d="M 119.34039704204932 91.81776055985345 l 4.730325275551118 -2.0012336846128806 a26.13623534049473,26.13623534049473 0 0,0 0.17172541254413404,0.41584670761316 l -4.764072374981449 1.9195124065464177" fill="#ff4306" stroke="none" /><path d="M 119.61058180528143 92.48833698450437 l 17.022446909916326 -6.520300425356066 a39.22849462895437,39.22849462895437 0 0,0 0.2361096057661177,0.6326563571426627 l -17.13216110418407 6.22632093118407" fill="#ffed16" stroke="none" /><path d="M 119.7369772167798 92.82701384747503 l 8.494495837001807 -3.0871445177376637 a30.038081699024342,30.038081699024342 0 0,0 0.17242848605717268,0.4874785495532746 l -8.546377403868789 2.9404683417577746" fill="#ff780b" stroke="none" /><path d="M 119.85752413597 93.16781622104841 l 11.471727114773623 -3.9469647562025663 a33.13173745934759,33.13173745934759 0 0,0 0.18090355614914352,0.5408786070466985 l -11.537967964694536 3.748913046233554" fill="#ffa10e" stroke="none" /><path d="M 119.97218684219823 93.5106431181261 l 7.843152764585787 -2.5483948137774934 a29.246778850891886,29.246778850891886 0 0,0 0.15144889607040463,0.4801343876861096 l -7.8858571444243974 2.4130102596649645" fill="#ff6d0a" stroke="none" /><path d="M 120.08093135843002 93.85539295169968 l 4.921421279271798 -1.5059162018186845 a26.146666009658027,26.146666009658027 0 0,0 0.12798681314203542,0.43150790826194496 l -4.946613989525536 1.4209789068102097" fill="#ff4306" stroke="none" /><path d="M 120.18372546131832 94.20196356495316 l 13.652986398358333 -3.921997092984151 a35.205143392135604,35.205143392135604 0 0,0 0.16230112497461477,0.5838835002378956 l -13.718474293899312 3.6864022893273036" fill="#ffbb11" stroke="none" /><path d="M 120.28053869075195 94.5502522615342 l 11.121627963672283 -2.988582688423338 a32.516172760421796,32.516172760421796 0 0,0 0.1405994171516783,0.541786908397271 l -11.171423712694263 2.7966993544772167" fill="#ff990e" stroke="none" /><path d="M 120.37134235888165 94.90015583598534 l 11.36012012230413 -2.8439383761561112 a32.710692322854044,32.710692322854044 0 0,0 0.1320377995113452,0.5473819221379141 l -11.407390722076295 2.647971222358791" fill="#ff9b0e" stroke="none" /><path d="M 120.45610955862082 95.25157060432595 l 37.30906502104347 -8.66046696530216 a59.301044643737065,59.301044643737065 0 0,0 0.22225357476689817,0.9963191961334582 l -37.45261298281241 8.016969599618738" fill="#35ff2f" stroke="none" /><path d="M 120.6074358757038 95.95851677861258 l 7.898474562403759 -1.5490307775818815 a29.048937617029665,29.048937617029665 0 0,0 0.09200805032306597,0.4915106838930029 l -7.923968336636684 1.4128420162263158" fill="#ff6a09" stroke="none" /><path d="M 120.67395015179393 96.31383870115 l 10.37645056463167 -1.8501191214034352 a31.54009805853947,31.54009805853947 0 0,0 0.09069751472499174,0.5353018659988342 l -10.406759940876885 1.6712314670887631" fill="#ff8c0c" stroke="none" /><path d="M 120.73433829027371 96.67025291283417 l 15.841079408479114 -2.5439339939142873 a37.044045530698725,37.044045530698725 0 0,0 0.09568672158126897,0.6304559406314213 l -15.882522023499684 2.270878940890784" fill="#ffd213" stroke="none" /><path d="M 120.78858239683441 97.02765380044208 l 11.508192080368413 -1.6454383632755207 a32.625229131763085,32.625229131763085 0 0,0 0.07470245468142887,0.556620056373728 l -11.53481053410768 1.4470999648371283" fill="#ff9a0e" stroke="none" /><path d="M 120.83666639777658 97.38593545837742 l 5.753913900321466 -0.7218574226434128 a26.799017443579384,26.799017443579384 0 0,0 0.05348273147195595,0.4582073818980322 l -5.76548698479701 0.6227063024205279" fill="#ff4c07" stroke="none" /><path d="M 120.91429891909075 98.10471618934814 l 7.772587824269127 -0.7043630736653692 a28.80443776485661,28.80443776485661 0 0,0 0.04049837587126811,0.49418276425394286 l -7.78356068395989 0.5704663922036576" fill="#ff6709" stroke="none" /><path d="M 120.94382443527127 98.46500227214037 l 16.445226347667237 -1.2052901396219915 a37.4893357642653,37.4893357642653 0 0,0 0.04162995969808074,0.6439970506730103 l -16.463536898369732 0.922034024695946" fill="#ffd814" stroke="none" /><path d="M 120.96714384426684 98.82574320788733 l 5.578000012007942 -0.312393736083223 a26.58674090864295,26.58674090864295 0 0,0 0.02165729551322725,0.4571512787239478 l -5.582550915754665 0.21633135073627544" fill="#ff4906" stroke="none" /><path d="M 120.98425023603335 99.18683210126433 l 5.267694101086679 -0.20413022601147948 a26.271647777668278,26.271647777668278 0 0,0 0.013621606102710742,0.45203479135272523 l -5.270427401645035 0.11342528723375518" fill="#ff4406" stroke="none" /><line stroke="#e1ed5e" stroke-width="0.3" x1="184.98032266829074" x2="189.97916517819016" y1="98.17113171792111" y2="98.06355123074" /><path d="M 185.9800911702706 98.14961562048488 a86.0,86.0 0 0,1 -9.607161424134198,41.387399972396054" fill="none" id="id76" stroke="none" /><text fill="#e1ed5e" style="font-size:6.75px; font-family:Arial;" text-anchor="middle"><textPath startOffset="21.466115282336823" xlink:href="#id76">April</textPath></text><path d="M 120.99513854157772 99.54816195383933 l 2.5967905488842993 -0.055885735908470804 a23.597391839952696,23.597391839952696 0 0,0 0.005244231417025541,0.40617150259441925 l -2.5973677874190404 0.011177975253588842" fill="#ff1f03" stroke="none" /><path d="M 120.99980553446 99.90962569577887 l 2.450501600393025 -0.01054592514034822 a23.45052429289445,23.45052429289445 0 0,0 -0.001737240200239587,0.4036734410969325 l -2.4503200629032826 -0.03163699416026898" fill="#ff1d02" stroke="none" /><path d="M 120.99824983174949 100.27111621757518 l 19.228515597629666 0.24826652031411067 a40.230118261555134,40.230118261555134 0 0,0 -0.014900349429195842,0.6923606881759098 l -19.221393185515463 -0.5792170242801353" fill="#fffa17" stroke="none" /><path d="M 120.9904718944345 100.63252640178507 l 27.371279535078877 0.8248055138373154 a48.38370405045826,48.38370405045826 0 0,0 -0.03225088864119127,0.8322521322269578 l -27.353026513586485 -1.2958348930782793" fill="#a6ff21" stroke="none" /><path d="M 120.9764740272857 100.99374915477107 l 21.03195925078944 0.9963777373387254 a42.055547452449005,42.055547452449005 0 0,0 -0.04048076568746025,0.7228112647898371 l -21.011692134214453 -1.3582607184639859" fill="#efff19" stroke="none" /><path d="M 120.95626037817324 101.35467743843564 l 2.5950797905083176 0.16775397803338202 a23.600496205775105,23.600496205775105 0 0,0 -0.02969553938027713,0.4051720416279987 l -2.5918076924637026 -0.212399156158151" fill="#ff1f03" stroke="none" /><path d="M 120.92983693683757 101.71520430193887 l 11.260745248369055 0.9228203139531316 a32.29849462895437,32.29849462895437 0 0,0 -0.05017863937677858,0.5537171042041716 l -11.243192012715202 -1.1165188067058738" fill="#ff960d" stroke="none" /><path d="M 120.89721153311464 102.0752229133903 l 4.964483014645792 0.4930040014575268 a25.988902138563123,25.988902138563123 0 0,0 -0.048039493692067205,0.4447860485131332 l -4.955261219452673 -0.5783863718554514" fill="#ff4006" stroke="none" /><path d="M 119.67450827220406 107.3425965602758 l 7.222078243994219 2.695305322944875 a28.708637035577016,28.708637035577016 0 0,0 -0.17677099970351517,0.46149329959771407 l -7.1746129646971974 -2.819222189375733" fill="#ff6609" stroke="none" /><path d="M 119.54520255179757 107.68017299344265 l 10.541002990884797 4.142025455087752 a32.325595742584014,32.325595742584014 0 0,0 -0.2079573084474031,0.5161329851117179 l -10.468143068180002 -4.322857808042283" fill="#ff960d" stroke="none" /><path d="M 119.41010516605496 108.01547362559984 l 8.808490127049938 3.637498081061422 a30.52999950724352,30.52999950724352 0 0,0 -0.20476764165688294,0.48401021749337353 l -8.744571504200746 -3.788582824220959" fill="#ff7e0b" stroke="none" /><path d="M 119.26925614724726 108.34839909993367 l 11.622312518586973 5.03536320384533 a33.66621612299202,33.66621612299202 0 0,0 -0.23495638648515438,0.5297646248494957 l -11.533915047370545 -5.234676165187513" fill="#ffa70f" stroke="none" /><path d="M 119.12269723197855 108.67885076344098 l 15.136226400970855 6.869587928004323 a37.62217157780625,37.62217157780625 0 0,0 -0.2727166420832935,0.5874073850359717 l -15.015735142047731 -7.129115380319125" fill="#ffda14" stroke="none" /><path d="M 118.97047184881838 109.00673069616215 l 11.63509498036193 5.5240675059389925 a33.879858578890314,33.879858578890314 0 0,0 -0.2546583496681843,0.5246716276280828 l -11.53828337407903 -5.72352808953235" fill="#ffaa0f" stroke="none" /><path d="M 118.81262510543309 109.33194174019688 l 14.846687532514151 7.364651254774465 a37.57293633586282,37.57293633586282 0 0,0 -0.2923913921925014,0.5769159559743698 l -14.71771747053538 -7.619121422451529" fill="#ffd914" stroke="none" /><path d="M 118.64920377521936 109.65438752849418 l 55.94761132565807 28.96316258548255 a84.0,84.0 0 0,0 -0.6757899671004277,1.2783399396554627 l -55.44076885033275 -29.921917540224147" fill="#4dd2ff" stroke="none" /><line stroke="#e1ed5e" stroke-width="0.3" x1="174.80103733775053" x2="179.2010983576182" y1="140.37084112569926" y2="142.7455964860345" /><path d="M 175.68104954172406 140.8457921977663 a86.0,86.0 0 0,1 -30.038265399797805,32.042727171017184" fill="none" id="id77" stroke="none" /><text fill="#e1ed5e" style="font-size:6.75px; font-family:Arial;" text-anchor="middle"><textPath startOffset="22.206326154141568" xlink:href="#id77">May</textPath></text><path d="M 118.48025628344425 109.97397251340804 l 23.583116366740345 12.72803530506738 a47.79862422390855,47.79862422390855 0 0,0 -0.39700988859105624,0.7206882671102038 l -23.360530068697777 -13.132094090575388" fill="#adff20" stroke="none" /><path d="M 118.30583269289576 110.29060199501025 l 4.017739696335221 2.258567573961521 a25.609051936532964,25.609051936532964 0 0,0 -0.21932080339121393,0.38240430731811526 l -3.9782668967916277 -2.3273917271379516" fill="#ff3b05" stroke="none" /><path d="M 118.12598468904814 110.60418214915192 l 4.114573515663987 2.407134717074982 a25.76697102591899,25.76697102591899 0 0,0 -0.22726360996808892,0.3809068824849388 l -4.072529029997671 -2.477603693446025" fill="#ff3d05" stroke="none" /><path d="M 117.94076556474637 110.91462005526583 l 12.808666978839225 7.792406237288466 a35.99278308859761,35.99278308859761 0 0,0 -0.32656656643518084,0.5265292861519585 l -12.672635772736081 -8.011731854805697" fill="#ffc512" stroke="none" /><path d="M 117.75023020441432 111.22182372390056 l 8.738817754579594 5.5247436944674995 a31.338748891297918,31.338748891297918 0 0,0 -0.292189267655428,0.45348423207385485 l -8.642423623547115 -5.674349526462808" fill="#ff890c" stroke="none" /><path d="M 117.55443506779139 111.5257021239791 l 12.886524460938183 8.460895595703766 a36.41587710653395,36.41587710653395 0 0,0 -0.34854658153134,0.5210298479681573 l -12.738974773996123 -8.681462357877729" fill="#ffcb12" stroke="none" /><path d="M 117.35343817320211 111.8261652097733 l 21.870360097468826 14.904394687002505 a47.466084557011925,47.466084557011925 0 0,0 -0.4659340767213226,0.6712127885225935 l -21.610565113585366 -15.278648737712118" fill="#b0ff20" stroke="none" /><path d="M 117.14729908036423 112.12312394758627 l 14.814906459174317 10.474124609054853 a39.14355918005322,39.14355918005322 0 0,0 -0.39371003319851045,0.5468288012601185 l -14.632416633600203 -10.727587015766101" fill="#ffec16" stroke="none" /><path d="M 116.93607887273984 112.41649034213515 l 7.918814432539844 5.805587211869483 a30.81898492165172,30.81898492165172 0 0,0 -0.3173456314857631,0.42513633325710126 l -7.8177075343589895 -5.941036424635899" fill="#ff820c" stroke="none" /><path d="M 116.71984013943494 112.70617746262583 l 11.647073266816268 8.851148014228208 a35.628640977628855,35.628640977628855 0 0,0 -0.3752767855255465,0.4850958331115431 l -11.492989664072653 -9.050321841453004" fill="#ffc111" stroke="none" /><path d="M 116.498646956653 112.99209946851258 l 11.528866538528012 9.078573607962587 a35.674306198876515,35.674306198876515 0 0,0 -0.38406293483030807,0.47917756357666447 l -11.370885691642851 -9.275679005117501" fill="#ffc112" stroke="none" /><path d="M 116.27256486870786 113.27417163493432 l 4.220563206725237 3.442879524781903 a26.446702966394007,26.446702966394007 0 0,0 -0.29079283355084135,0.3502787007884927 l -4.160674373280852 -3.515019482684166" fill="#ff4706" stroke="none" /><path d="M 116.0416608686014 113.55231037782055 l 13.473264015142952 11.382478237832089 a38.63773381294964,38.63773381294964 0 0,0 -0.4335843517253323,0.5043565559347843 l -13.275337153846841 -11.612711892928402" fill="#ffe615" stroke="none" /><path d="M 115.80600337817218 113.82643327865902 l 19.46930596559366 17.030937769305247 a46.86709717157781,46.86709717157781 0 0,0 -0.5363853356123868,0.6026346107424184 l -19.173261780332933 -17.36354654978853" fill="#b7ff1f" stroke="none" /><path d="M 115.56566222782051 114.09645910891815 l 22.33392571738506 20.225883486925447 a51.131223021582734,51.131223021582734 0 0,0 -0.5964179401289774,0.647293880036232 l -21.982461369260363 -20.607328621763017" fill="#88ff25" stroke="none" /><path d="M 115.32070863581623 114.36230785411682 l 7.095909938991162 6.652018876635256 a30.726319601852765,30.726319601852765 0 0,0 -0.36504835432849375,0.38275174006933793 l -6.980355033283704 -6.773177733287101" fill="#ff810b" stroke="none" /><path d="M 115.07121518719521 114.62390073753431 l 11.825883649224005 11.474890808195454 a37.4780048290135,37.4780048290135 0 0,0 -0.45323288954961366,0.4591225242334418 l -11.626610134618858 -11.676753826409561" fill="#ffd814" stroke="none" /><path d="M 114.81725581225074 114.88116024355365 l 6.925267322069674 6.955134881585764 a30.814949246082584,30.814949246082584 0 0,0 -0.3790973145363295,0.3710265116818166 l -6.804520055157551 -7.0733114961901515" fill="#ff820c" stroke="none" /><path d="M 114.55890576462653 115.13401014063108 l 12.079300427741744 12.556455692524523 a38.42337735291219,38.42337735291219 0 0,0 -0.4805925882042771,0.4544302892240272 l -11.861372005146661 -12.762520618494472" fill="#ffe415" stroke="none" /><path d="M 114.29624159901734 115.38237550388516 l 8.443102175492982 9.084553249997521 a33.402220853454224,33.402220853454224 0 0,0 -0.42452703783782114,0.3877953836259343 l -8.285475588188296 -9.228541400210037" fill="#ffa40f" stroke="none" /><path d="M 114.0293411484842 115.62618273729858 l 5.341740427120498 5.949745691259268 a28.995852961466444,28.995852961466444 0 0,0 -0.3742641752000783,0.33024461966458185 l -5.238533899013832 -6.040813452696138" fill="#ff6a09" stroke="none" /><path d="M 113.75828350139079 115.86535959552629 l 16.60250048778529 19.145167374766427 a46.34127968857791,46.34127968857791 0 0,0 -0.6071469477107926,0.5174238006108702 l -16.27048806349745 -19.428115565600244" fill="#bdff1f" stroke="none" /><path d="M 113.48314897796784 116.09983520530334 l 6.220313318507708 7.427494832028587 a30.688135902237114,30.688135902237114 0 0,0 -0.40790359188545217,0.33567688618657776 l -6.091539598077564 -7.533466837072343" fill="#ff800b" stroke="none" /><path d="M 113.20401910651253 116.32954008644616 l 6.124487835367099 7.574214245664915 a30.740537597319406,30.740537597319406 0 0,0 -0.4143275636553248,0.32916687480416584 l -5.993202778994423 -7.678515034474207" fill="#ff810b" stroke="none" /><path d="M 112.92097659922987 116.55440617244103 l 5.984110853014477 7.6668664230549455 a30.72576081600473,30.72576081600473 0 0,0 -0.41973038444247923,0.32183136056872197 l -5.851251740078504 -7.768737125451039" fill="#ff810b" stroke="none" /><path d="M 112.63410532772338 116.77436683061366 l 6.694033847470123 8.88770327785782 a32.1266058933675,32.1266058933675 0 0,0 -0.44459402485962485,0.3289000308491579 l -6.5400548521919335 -9.001613257446747" fill="#ff930d" stroke="none" /><path d="M 112.34349029814194 116.9893568818739 l 6.555053889875595 9.022257661739005 a32.152123780427715,32.152123780427715 0 0,0 -0.450547208580947,0.3214534705521777 l -6.3987793534457635 -9.133755394135402" fill="#ff940d" stroke="none" /><path d="M 112.04921762599082 117.19931262002967 l 23.43345428513875 33.44941709309802 a61.84103675963339,61.84103675963339 0 0,0 -0.8770917641257144,0.6032717131153663 l -22.85420563639015 -33.84782959557848" fill="#32ff46" stroke="none" /><path d="M 111.7513745106137 117.40417183066458 l 16.61262410071636 24.603842226793915 a50.68717453434512,50.68717453434512 0 0,0 -0.7273013398372172,0.48201566951421193 l -16.186648062139177 -24.886155917399446" fill="#8dff24" stroke="none" /><path d="M 111.45004920935366 117.60387380957326 l 4.466077758156124 6.866369553599517 a29.191024440721396,29.191024440721396 0 0,0 -0.423573160189554,0.27034443150342174 l -4.34722279591964 -6.942228413926748" fill="#ff6c0a" stroke="none" /><path d="M 111.1453310114006 117.79835938074945 l 5.447032021805159 8.69855129321595 a31.26328175815512,31.26328175815512 0 0,0 -0.4585590980899332,0.28168445111604423 l -5.296493723782917 -8.791024211160371" fill="#ff880c" stroke="none" /><line stroke="#e1ed5e" stroke-width="0.3" x1="143.8653032363475" x2="146.44561519142675" y1="172.8068346515853" y2="177.08958963109032" /><path d="M 144.38136562736335 173.6633856474863 a86.0,86.0 0 0,1 -40.68145358897372,12.25698825130547" fill="none" id="id78" stroke="none" /><text fill="#e1ed5e" style="font-size:6.75px; font-family:Arial;" text-anchor="middle"><textPath startOffset="21.466115282336833" xlink:href="#id78">June</textPath></text><path d="M 110.8373102113329 117.98757091392108 l 5.665685327932173 9.40380173906711 a31.978682861929634,31.978682861929634 0 0,0 -0.4739425499441215,0.28001361241985834 l -5.502974906959669 -9.499933923780716" fill="#ff910d" stroke="none" /><path d="M 110.5260780823613 118.17145234162733 l 10.232318863738735 17.664327883747948 a41.41393712427318,41.41393712427318 0 0,0 -0.6199296286506288,0.3520122223172891 l -9.926740468166907 -17.837843271859867" fill="#f6ff19" stroke="none" /><path d="M 110.21172684928248 118.3499491758327 l 16.53369855466415 29.710207944696737 a55.00087710653395,55.00087710653395 0 0,0 -0.831239224801417,0.4532579021284631 l -16.019836517994083 -29.99040649858497" fill="#60ff29" stroke="none" /><path d="M 109.89434966115114 118.52300852407294 l 5.076044176314973 9.502757914006647 a31.773515324726517,31.773515324726517 0 0,0 -0.48463552462970055,0.2535384011968271 l -4.911717749158776 -9.588725734148191" fill="#ff8f0d" stroke="none" /><path d="M 109.57404056367764 118.69057910512821 l 17.784193143202156 34.718556554372526 a60.00840544003154,60.00840544003154 0 0,0 -0.9234038916254652,0.4630138808113472 l -17.18393534389393 -35.01953827609318" fill="#2fff31" stroke="none" /><path d="M 109.2508944713604 118.85261126421891 l 5.645470716649169 11.505035016237377 a33.81550507539174,33.81550507539174 0 0,0 -0.5247640347259049,0.25191862652630764 l -5.446594013923031 -11.600507919263245" fill="#ffa90f" stroke="none" /><path d="M 108.92500713936063 119.00905698771935 l 4.539853045174095 9.669272405508444 a31.68199862028186,31.68199862028186 0 0,0 -0.4956452621340501,0.2275264299807867 l -4.372739787272625 -9.745985905823305" fill="#ff8e0d" stroke="none" /><path d="M 108.59647513512805 119.15986991738527 l 4.183010743563948 9.323116794953247 a31.218516802995957,31.218516802995957 0 0,0 -0.49218121339626086,0.21575778008035215 l -4.021908855509933 -9.393739128328054" fill="#ff870c" stroke="none" /><path d="M 108.2653958097858 119.30500536409082 l 4.0734830681537275 9.514198024024063 a31.349552084359907,31.349552084359907 0 0,0 -0.4979033501002326,0.2081236407230546 l -3.9091082585560337 -9.58290670776709" fill="#ff890c" stroke="none" /><path d="M 107.93186726928326 119.44442032107085 l 4.5043617922986705 11.042129298709467 a32.92551443776486,32.92551443776486 0 0,0 -0.5266183981011646,0.20955232876956245 l -4.31362231815564 -11.118028471885099" fill="#ff9e0e" stroke="none" /><path d="M 107.59598834532513 119.57807347666477 l 4.8729459243480955 12.559641881680331 a34.471830097565785,34.471830097565785 0 0,0 -0.555045347660916,0.20987065714289022 l -4.656030355926904 -12.641660788929853" fill="#ffb210" stroke="none" /><path d="M 107.2578585660854 119.70592522655815 l 14.972117486349168 40.651030187871626 a64.32055582930917,64.32055582930917 0 0,0 -1.0422393808636665,0.37370996087669234 l -14.270158544855766 -40.90272768978828" fill="#35ff63" stroke="none" /><path d="M 106.91757812671514 119.82793768551818 l 3.7198872447659284 10.662357711801823 a32.29262737755001,32.29262737755001 0 0,0 -0.5264163692531101,0.17858901375431221 l -3.5358011425755915 -10.724809712454258" fill="#ff960d" stroke="none" /><path d="M 106.57524785965236 119.94407469862006 l 4.37201170732265 13.261207780339769 a34.96331329456982,34.96331329456982 0 0,0 -0.5731963082008829,0.18351935694310798 l -4.1430940540308265 -13.334499983942584" fill="#ffb811" stroke="none" /><path d="M 106.2309692047433 120.05430185196036 l 2.2477544393837086 7.234371497482282 a28.575521829112052,28.575521829112052 0 0,0 -0.47098586778498674,0.1419041784076301 l -2.122893597158476 -7.271991044995638" fill="#ff6409" stroke="none" /><path d="M 105.88484417918355 120.15858648285463 l 2.8336768734867386 9.70678552895391 a31.111943924312605,31.111943924312605 0 0,0 -0.5153750281402683,0.14565013089445256 l -2.6661706772418645 -9.754124453186881" fill="#ff860c" stroke="none" /><path d="M 105.53697534728816 120.25689768951611 l 2.7043871026333424 9.893938371555388 a31.256886764560953,31.256886764560953 0 0,0 -0.5202181262939459,0.1373943353432041 l -2.533678533527899 -9.939024056202177" fill="#ff880c" stroke="none" /><path d="M 105.18746579009965 120.34920634021253 l 4.26949855124059 16.748237097629932 a38.28386715285306,38.28386715285306 0 0,0 -0.639972657682683,0.15728970880100016 l -3.9805726088146955 -16.81924806474496" fill="#ffe215" stroke="none" /><path d="M 104.83641907484287 120.43548508189849 l 8.100546763585761 34.227514196101026 a56.173023553759734,56.173023553759734 0 0,0 -0.9428504262085938,0.21458968734763217 l -7.510176187984305 -34.361880617026344" fill="#54ff2b" stroke="none" /><path d="M 104.48393922423573 120.51570834832081 l 1.6687372891283394 7.635100705353518 a28.81533408889327,28.81533408889327 0 0,0 -0.48548148773407396,0.10173736600276465 l -1.5370643399648873 -7.662694052082824" fill="#ff6709" stroke="none" /><path d="M 104.13013068566511 120.58985236759428 l 2.00345325237339 9.98777274407281 a31.186728096974477,31.186728096974477 0 0,0 -0.5272523080939285,0.10104915971727096 l -1.8312333297077574 -10.02077910213855" fill="#ff870c" stroke="none" /><path d="M 103.7750983002368 120.6578951692458 l 1.8278403173397506 10.002212037593015 a31.16785355277422,31.16785355277422 0 0,0 -0.528593480944241,0.09190275221128034 l -1.6553978649234597 -10.032193368325302" fill="#ff870c" stroke="none" /><path d="M 103.41894727170886 120.7198165907248 l 1.6476094578883214 9.98499335250835 a31.12001527545087,31.12001527545087 0 0,0 -0.5292834943021983,0.0826631965451702 l -1.4754900999776057 -10.011874856400626" fill="#ff860c" stroke="none" /><path d="M 103.06178313531738 120.77559828337769 l 2.2815323461136026 15.481239982881755 a36.64845619394895,36.64845619394895 0 0,0 -0.6248935400092872,0.08660455060238273 l -2.014710214917485 -15.518219098976742" fill="#ffcd13" stroke="none" /><path d="M 102.70371172650421 120.8252237178851 l 1.6693694619606465 12.858246747365216 a33.96615994875333,33.96615994875333 0 0,0 -0.5804534928503858,0.07028483437158274 l -1.4477885460588802 -12.88507711046215" fill="#ffab0f" stroke="none" /><path d="M 102.34483914955558 120.86867818915974 l 1.3706875449695455 12.19889103236791 a33.27565585887454,33.27565585887454 0 0,0 -0.5697543415914802,0.05905736709090939 l -1.1605006067724628 -12.22067776791458" fill="#ffa20f" stroke="none" /><path d="M 101.98527174616119 120.90594882070398 l 0.6734203370790165 7.091468021452446 a28.123370947077955,28.123370947077955 0 0,0 -0.4823234214691698,0.04161689431547435 l -0.551252597868305 -7.102009168046584" fill="#ff5e08" stroke="none" /><path d="M 101.62511606390274 120.93702456842531 l 0.40117480301061165 5.168496511378457 a26.18404257415985,26.18404257415985 0 0,0 -0.4496638488377123,0.031011451717877413 l -0.312148193393969 -5.17463630761262" fill="#ff4306" stroke="none" /><path d="M 101.26447882468166 120.96189622390904 l 0.45911348160666204 7.610953199520179 a28.62478811471371,28.62478811471371 0 0,0 -0.49209000231179373,0.025435432267218304 l -0.3280354108813887 -7.6177284385496" fill="#ff6509" stroke="none" /><path d="M 100.90346689309514 120.98055641714683 l 0.4262704070198932 9.898968508743351 a30.90814230807135,30.90814230807135 0 0,0 -0.5317372754023724,0.018314106905443366 l -0.2558127799428686 -9.904839414074889" fill="#ff830c" stroke="none" /><line stroke="#e1ed5e" stroke-width="0.3" x1="102.19456741930631" x2="102.32365962044197" y1="184.97166512339345" y2="189.96999836594603" /><path d="M 102.22038585953345 185.97133177190398 a86.0,86.0 0 0,1 -42.740103519485714,-10.115201625700543" fill="none" id="id79" stroke="none" /><text fill="#e1ed5e" style="font-size:6.75px; font-family:Arial;" text-anchor="middle"><textPath startOffset="22.20632615414155" xlink:href="#id79">July</textPath></text><path d="M 100.54218724476979 120.99299961872073 l 0.2602731209556959 10.07753978296941 a31.0809002660885,31.0809002660885 0 0,0 -0.5349471538376231,0.009209600385233727 l -0.08676627722540477 -10.080526860633803" fill="#ff860c" stroke="none" /><path d="M 100.18074693466247 120.99922214144158 l 0.07183688680321333 8.346026707160291 a29.346335862816595,29.346335862816595 0 0,0 -0.5051676429313318,0.0 l 0.07183688680320759 -8.346026707160291" fill="#ff6e0a" stroke="none" /><path d="M 99.81925306533755 120.99922214144158 l -0.25813697578525946 29.99041564692595 a50.99152655957426,50.99152655957426 0 0,0 -0.8776377701208943,-0.015109330123204024 l 0.7743344357988217 -29.981528839523584" fill="#8aff24" stroke="none" /><path d="M 99.45781275523022 120.99299961872073 l -0.13609610506021222 5.269518066312238 a26.271275253769588,26.271275253769588 0 0,0 -0.45196557546383476,-0.015566608266010912 l 0.22678203219869 -5.266394659620134" fill="#ff4406" stroke="none" /><path d="M 99.09653310690486 120.98055641714683 l -0.3272460904904053 7.599398623566055 a28.60644131270326,28.60644131270326 0 0,0 -0.49177460162453207,-0.02541912965432256 l 0.4580087605284263 -7.59263968714953" fill="#ff6409" stroke="none" /><path d="M 98.73552117531835 120.96189622390904 l -0.4586200021402391 7.602772544248012 a28.616592588942545,28.616592588942545 0 0,0 -0.49143852129477955,-0.03389247771380982 l 0.5894212842139487 -7.593751722017917" fill="#ff6509" stroke="none" /><path d="M 98.37488393609728 120.93702456842531 l -0.7731993769100571 9.961438884420552 a30.991401399428405,30.991401399428405 0 0,0 -0.5315109197693751,-0.045860998639014994 l 0.9445546144209739 -9.946653633502875" fill="#ff840c" stroke="none" /><path d="M 98.01472825383883 120.90594882070398 l -0.9279144880771275 9.771424408391917 a30.815383857297725,30.815383857297725 0 0,0 -0.5276289313414504,-0.05469089607807819 l 1.0959760160241714 -9.754004143858078" fill="#ff820c" stroke="none" /><path d="M 97.65516085044442 120.86867818915974 l -1.3288735191573484 11.826753161574821 a32.90117620971716,32.90117620971716 0 0,0 -0.562253804334358,-0.06808110554797135 l 1.5322547465430958 -11.8021265273015" fill="#ff9e0e" stroke="none" /><path d="M 97.2962882734958 120.8252237178851 l -0.16765437438406128 1.2913506346123855 a22.30218833152656,22.30218833152656 0 0,0 -0.3802750474041111,-0.05270265649608392 l 0.1898580129750034 -1.2882734126236965" fill="#ff0c01" stroke="none" /><path d="M 96.93821686468263 120.77559828337769 l -1.0842052590667097 7.356828332899097 a28.43629102197694,28.43629102197694 0 0,0 -0.48363920595434623,-0.07553449742743681 l 1.210680328629573 -7.337075528124554" fill="#ff6209" stroke="none" /><path d="M 96.58105272829116 120.7198165907248 l -0.885199715614725 5.364568183156458 a26.43711047600276,26.43711047600276 0 0,0 -0.44836209939692506,-0.07795349811768047 l 0.9774107864837 -5.348536106517772" fill="#ff4706" stroke="none" /><path d="M 96.22490169976321 120.6578951692458 l -1.181264978573997 6.464056338070021 a27.571104267271114,27.571104267271114 0 0,0 -0.46612547223341816,-0.0893340561415063 l 1.2923580653791102 -6.4427650835800465" fill="#ff5608" stroke="none" /><path d="M 95.86986931433489 120.58985236759428 l -2.1946330821165114 10.940857469390366 a32.1587981669459,32.1587981669459 0 0,0 -0.5418122562683069,-0.11354202624291947 l 2.382636799814205 -10.901459462420906" fill="#ff940d" stroke="none" /><path d="M 95.51606077576429 120.51570834832081 l -2.2738636018201546 10.403781172291882 a31.649371735488323,31.649371735488323 0 0,0 -0.5312269438635562,-0.1209055228969005 l 2.4526106950765736 -10.363098915817295" fill="#ff8d0d" stroke="none" /><path d="M 94.81253420990036 120.34920634021253 l -7.508078381246549 29.452422894058305 a51.394349068690246,51.394349068690246 0 0,0 -0.8553721992852227,-0.22591157218816774 l 8.01394102334326 -29.31881997256656" fill="#85ff25" stroke="none" /><path d="M 94.46302465271185 120.25689768951611 l -1.5152333836946623 5.543446684167571 a26.746802010446437,26.746802010446437 0 0,0 -0.44306565582434126,-0.1252147799991739 l 1.6104302076236174 -5.5165431108298755" fill="#ff4b07" stroke="none" /><path d="M 94.11515582081647 120.15858648285463 l -1.4640630498704448 5.015161100027626 a26.22449246082586,26.22449246082586 0 0,0 -0.4322358630140444,-0.1302291198412813 l 1.550173887324735 -4.989216611080619" fill="#ff4406" stroke="none" /><path d="M 93.76903079525671 120.05430185196036 l -2.369754814544083 7.627028284753225 a28.986695082290332,28.986695082290332 0 0,0 -0.4752143044376176,-0.15214861350780695 l 2.5006904640726413 -7.5851068245857105" fill="#ff6a09" stroke="none" /><path d="M 93.42475214034765 119.94407469862007 l -3.1262688895883968 9.482614434130186 a30.98466492559377,30.98466492559377 0 0,0 -0.5050946961347185,-0.17135554459147387 l 3.289033318660341 -9.427395902640589" fill="#ff840c" stroke="none" /><path d="M 93.08242187328487 119.8279376855182 l -3.4027264796135572 9.753275982251694 a31.329808317729377,31.329808317729377 0 0,0 -0.5076629018925427,-0.18202985483775927 l 3.570108942135827 -9.693258586373977" fill="#ff890c" stroke="none" /><path d="M 92.7421414339146 119.70592522655815 l -7.188294849238586 19.517051691729247 a41.79872326796098,41.79872326796098 0 0,0 -0.6730187176713176,-0.2544780911008285 l 7.523183787670186 -19.390425350521788" fill="#f2ff19" stroke="none" /><path d="M 92.40401165467489 119.57807347666478 l -3.6926968709326444 9.517641073088706 a31.208893268946486,31.208893268946486 0 0,0 -0.4991623566237259,-0.19862700323756982 l 3.8559803035982285 -9.452667225445069" fill="#ff870c" stroke="none" /><path d="M 92.06813273071674 119.44442032107085 l -4.856734624431072 11.905946761243449 a33.85843845471568,33.85843845471568 0 0,0 -0.5377502648331581,-0.22477965431309868 l 5.060956348761692 -11.820582063910377" fill="#ffaa0f" stroke="none" /><path d="M 91.7346041902142 119.30500536409082 l -2.9958373901728144 6.997203548166057 a28.61156351631024,28.61156351631024 0 0,0 -0.4510808164746248,-0.1977405738992305 l 3.1158388813051823 -6.944598420972374" fill="#ff6509" stroke="none" /><path d="M 91.40352486487194 119.15986991738527 l -3.1737233953100716 7.073611736445452 a28.75296737952104,28.75296737952104 0 0,0 -0.4498223809918122,-0.20649139271877906 l 3.295013772069303 -7.017933273392598" fill="#ff6609" stroke="none" /><path d="M 91.07499286063937 119.00905698771935 l -4.228009935763538 9.005088798094818 a30.948250714496893,30.948250714496893 0 0,0 -0.4802687074003331,-0.2305581654334477 l 4.382391311164112 -8.930976356161807" fill="#ff840c" stroke="none" /><path d="M 90.7491055286396 118.85261126421891 l -4.05578377298608 8.26537531917057 a30.20683502513058,30.20683502513058 0 0,0 -0.4648200333163081,-0.23307041421040112 l 4.197457713985149 -8.194337064050867" fill="#ff7a0b" stroke="none" /><path d="M 90.10565033884886 118.52300852407294 l -9.765436435867555 18.28167272611047 a41.72639154429881,41.72639154429881 0 0,0 -0.6306192771046518,-0.34386391071776995 l 10.078678524840846 -18.110868163632933" fill="#f2ff19" stroke="none" /><line stroke="#e1ed5e" stroke-width="0.3" x1="58.666819895761336" x2="56.23545636021788" y1="174.27360380694188" y2="178.64263932499728" /><path d="M 58.180547188652646 175.14741091055294 a86.0,86.0 0 0,1 -31.652253787137756,-30.449443065178592" fill="none" id="id80" stroke="none" /><text fill="#e1ed5e" style="font-size:6.75px; font-family:Arial;" text-anchor="middle"><textPath startOffset="22.20632615414155" xlink:href="#id80">August</textPath></text><path d="M 89.7882731507175 118.34994917583269 l -2.4887197056567363 4.472101612755455 a26.11795062580073,26.11795062580073 0 0,0 -0.39096238022435653,-0.22199864298273864 l 2.5653308528023 -4.4285998039780825" fill="#ff4206" stroke="none" /><path d="M 89.4739219176387 118.17145234162733 l -3.9144157592880435 6.7575614448853765 a28.809435793830687,28.809435793830687 0 0,0 -0.4269724779326218,-0.2522628659610068 l 4.030156108249047 -6.689180006630621" fill="#ff6709" stroke="none" /><path d="M 89.1626897886671 117.98757091392108 l -5.108894084616598 8.479649732887955 a30.899760520350846,30.899760520350846 0 0,0 -0.45322709320850135,-0.2784090982234065 l 5.254100377757409 -8.390452167836171" fill="#ff830c" stroke="none" /><path d="M 88.8546689885994 117.79835938074946 l -5.4477734329052545 8.699735277899306 a31.264678722775205,31.264678722775205 0 0,0 -0.4536626933326645,-0.28954899519234245 l 5.596717928284843 -8.60467185388316" fill="#ff880c" stroke="none" /><path d="M 88.54995079064634 117.60387380957326 l -5.38288851319403 8.275919900838408 a30.872504188430078,30.872504188430078 0 0,0 -0.44298412501097545,-0.29358572287124035 l 5.524547336944967 -8.18203615687585" fill="#ff830c" stroke="none" /><path d="M 88.24862548938628 117.40417183066458 l -5.021132906162852 7.436462841392214 a29.97289001675372,29.97289001675372 0 0,0 -0.4251056637831142,-0.29239155187041943 l 5.148395454568856 -7.348930500156694" fill="#ff770a" stroke="none" /><path d="M 87.95078237400918 117.19931262002967 l -6.626095972164931 9.458232029086844 a32.54830294668375,32.54830294668375 0 0,0 -0.4560988610525988,-0.32541442718518854 l 6.787922161066416 -9.342773340057436" fill="#ff990e" stroke="none" /><path d="M 87.65650970185807 116.9893568818739 l -7.29080960457207 10.034938525330587 a33.4038661673401,33.4038661673401 0 0,0 -0.4622697883026601,-0.3419761380764962 l 7.462464363293295 -9.907952438514323" fill="#ffa40f" stroke="none" /><path d="M 87.36589467227662 116.77436683061367 l -5.943775674926548 7.8915816311357645 a30.87955109884695,30.87955109884695 0 0,0 -0.4218312422512654,-0.32344220875132546 l 6.0787356456713 -7.788100080557072" fill="#ff830c" stroke="none" /><path d="M 87.07902340077011 116.55440617244103 l -4.634513764852777 5.937757311604024 a28.532309056864097,28.532309056864097 0 0,0 -0.3845645854294308,-0.3055213648577615 l 4.7360358429995655 -5.857102032741132" fill="#ff6309" stroke="none" /><path d="M 86.79598089348748 116.32954008644616 l -7.208968915821173 8.915402646970149 a32.46532324825071,32.46532324825071 0 0,0 -0.43152578595425467,-0.3551163437144113 l 7.361364830320117 -8.789991184398557" fill="#ff980e" stroke="none" /><path d="M 86.51685102203217 116.09983520530335 l -8.5706227121965 10.233930775271359 a34.348741992707204,34.348741992707204 0 0,0 -0.4500249884924353,-0.3835210582768826 l 8.745513177265991 -10.084885326771525" fill="#ffb010" stroke="none" /><path d="M 86.24171649860922 115.8653595955263 l -20.606307423530247 23.762155880653456 a52.452503202917114,52.452503202917114 0 0,0 -0.6770310524924945,-0.5974011867739368 l 21.012280828929327 -23.40393155210723" fill="#7aff26" stroke="none" /><path d="M 85.97065885151581 115.62618273729859 l -8.66871427215819 9.655400911596473 a33.97587661377747,33.97587661377747 0 0,0 -0.43181794168932214,-0.39445545142861616 l 8.833631763314369 -9.504752693581281" fill="#ffab0f" stroke="none" /><path d="M 85.70375840098266 115.38237550388516 l -7.01357663951082 7.546421816321852 a31.302365723859268,31.302365723859268 0 0,0 -0.39152427497385645,-0.37021063970085866 l 7.142436748875493 -7.424576539875063" fill="#ff890c" stroke="none" /><path d="M 85.44109423537348 115.13401014063109 l -7.440430159563905 7.734341255170984 a31.73219621563024,31.73219621563024 0 0,0 -0.3903816382632721,-0.38207059748394906 l 7.572461750202971 -7.605120554764465" fill="#ff8e0d" stroke="none" /><path d="M 85.18274418774928 114.88116024355367 l -7.063699947574879 7.094164544647646 a31.01114516605893,31.01114516605893 0 0,0 -0.3750271925087832,-0.37990056602448663 l 7.1847677651391955 -6.971523484642495" fill="#ff850c" stroke="none" /><path d="M 84.9287848128048 114.62390073753433 l -7.168615260442168 6.9558503871239505 a30.988638513846457,30.988638513846457 0 0,0 -0.3681648709947814,-0.3860193953342706 l 7.287286682815907 -6.83142387520718" fill="#ff840c" stroke="none" /><path d="M 84.67929136418377 114.36230785411682 l -11.335301157078174 10.626211143816972 a36.53722676653198,36.53722676653198 0 0,0 -0.42618690182555263,-0.4625417089962509 l 11.516534466899456 -10.429518180019377" fill="#ffcc13" stroke="none" /><path d="M 84.43433777217949 114.09645910891817 l -8.948591373436216 8.10395667924782 a33.07275450872179,33.07275450872179 0 0,0 -0.3785116125678239,-0.4252618092940086 l 9.086761835652378 -7.948720700212947" fill="#ffa00e" stroke="none" /><path d="M 84.19399662182784 113.82643327865904 l -9.08292988844529 7.945368672434736 a33.06766334877304,33.06766334877304 0 0,0 -0.37107821710143774,-0.4316478000531243 l 9.218350615117506 -7.787843773220081" fill="#ffa00e" stroke="none" /><path d="M 83.95833913139862 113.55231037782056 l -8.553887220708006 7.2264920385400755 a32.19782004533359,32.19782004533359 0 0,0 -0.35402883062740975,-0.4264505329088775 l 8.677012051228953 -7.0781802485174365" fill="#ff940d" stroke="none" /><path d="M 83.72743513129214 113.27417163493432 l -7.718074149495186 6.295936859257033 a30.960295653887847,30.960295653887847 0 0,0 -0.33331277546808474,-0.41585893657855894 l 7.825304837018131 -6.162150089100215" fill="#ff840c" stroke="none" /><path d="M 83.50135304334701 112.99209946851258 l -10.463608723717128 8.239720850764076 a34.31841233862225,34.31841233862225 0 0,0 -0.3614761358667889,-0.4672566330813035 l 10.603891676801984 -8.05838622356952" fill="#ffb010" stroke="none" /><path d="M 83.28015986056508 112.70617746262583 l -9.973425013339819 7.57926553560757 a33.526550704641764,33.526550704641764 0 0,0 -0.34522565983117803,-0.46248618731489777 l 10.102411939866082 -7.406466468783365" fill="#ffa60f" stroke="none" /><path d="M 83.06392112726016 112.41649034213515 l -10.143846665205173 7.43684385842991 a33.57792795900266,33.57792795900266 0 0,0 -0.3377303292903541,-0.4690778886549539 l 10.270356786871133 -7.261132364323818" fill="#ffa60f" stroke="none" /><path d="M 82.85270091963577 112.12312394758628 l -20.843752837326225 14.73651319636233 a46.52698285207451,46.52698285207451 0 0,0 -0.4567157160766473,-0.6579330524761218 l 21.094329460565007 -14.375538881699194" fill="#bbff1f" stroke="none" /><path d="M 82.6465618267979 111.8261652097733 l -22.424081339661438 15.281749239165151 a48.13616191977924,48.13616191977924 0 0,0 -0.46072471730104203,-0.6887209404145299 l 22.68380916237321 -14.8934913845448" fill="#a9ff21" stroke="none" /><path d="M 82.44556493220864 111.52570212397912 l -8.26368067516668 5.425678555979707 a30.8856666995171,30.8856666995171 0 0,0 -0.28796492052966577,-0.4469279515242218 l 8.355850459073393 -5.282629004534037" fill="#ff830c" stroke="none" /><path d="M 82.24976979558568 111.22182372390057 l -8.21289699378269 5.192252791395458 a30.71654084951217,30.71654084951217 0 0,0 -0.2786946275674168,-0.44934447793994586 l 8.301056261018065 -5.0501119820902485" fill="#ff810b" stroke="none" /><path d="M 82.05923443525364 110.91462005526583 l -8.394358143234648 5.106874030017359 a30.825752439144576,30.825752439144576 0 0,0 -0.2718818510819739,-0.455689621028245 l 8.481020870014854 -4.961622315103003" fill="#ff820c" stroke="none" /><line stroke="#e1ed5e" stroke-width="0.3" x1="26.63291911575756" x2="22.317208475507996" y1="142.92168965132927" y2="145.44649492493687" /><path d="M 25.769776987707644 143.4266507060508 a86.0,86.0 0 0,1 -11.730757126820373,-40.83630448921669" fill="none" id="id81" stroke="none" /><text fill="#e1ed5e" style="font-size:6.75px; font-family:Arial;" text-anchor="middle"><textPath startOffset="21.46611528233685" xlink:href="#id81">September</textPath></text><path d="M 81.87401531095188 110.60418214915194 l -8.424027715239639 4.928279806827778 a30.7597225781019,30.7597225781019 0 0,0 -0.2634321287894419,-0.45931612130461474 l 8.507611840181458 -4.782543839664856" fill="#ff810b" stroke="none" /><path d="M 81.69416730710424 110.29060199501025 l -8.488398563530296 4.771743119132003 a30.737681580762786,30.737681580762786 0 0,0 -0.2553036564977443,-0.46345029450332 l 8.569278629479557 -4.624922306230861" fill="#ff810b" stroke="none" /><path d="M 81.51974371655577 109.97397251340807 l -8.972066988565645 4.84231106754606 a31.195389277619,31.195389277619 0 0,0 -0.2509706082572387,-0.4747418100795376 l 9.05409010504777 -4.687154242380396" fill="#ff870c" stroke="none" /><path d="M 81.35079622478065 109.6543875284942 l -17.851103499929103 9.241224079956602 a41.101296442298214,41.101296442298214 0 0,0 -0.3198489780052075,-0.6310923776846894 l 18.007531147720577 -8.932577490569226" fill="#faff18" stroke="none" /><path d="M 81.18737489456691 109.33194174019688 l -4.719072940054945 2.340880844514046 a26.267767320390263,26.267767320390263 0 0,0 -0.19744197750123396,-0.4067889540345282 l 4.758668174170897 -2.2593029345142335" fill="#ff4406" stroke="none" /><path d="M 81.02952815118164 109.00673069616217 l -4.781383383884425 2.270087578050094 a26.29291268355179,26.29291268355179 0 0,0 -0.190592795602412,-0.41051992579650637 l 4.819750796326663 -2.1874475849747608" fill="#ff4506" stroke="none" /><path d="M 80.87730276802145 108.67885076344099 l -7.175223468330129 3.2564806585882233 a28.879625505075392,28.879625505075392 0 0,0 -0.20155078987574823,-0.4544438233152444 l 7.230215342937157 -3.132488498780283" fill="#ff6809" stroke="none" /><path d="M 80.73074385275274 108.34839909993369 l -4.812481055941138 2.085005887557647 a26.244732925987975,26.244732925987975 0 0,0 -0.1760259467378748,-0.4160733408642631 l 4.847657983871319 -2.001858021027225" fill="#ff4406" stroke="none" /><path d="M 80.58989483394504 108.01547362559985 l -11.41585622999575 4.714219410062499 a33.350936730068,33.350936730068 0 0,0 -0.2145535411571167,-0.5325042937441143 l 11.495312385410255 -4.517015748475579" fill="#ffa30f" stroke="none" /><path d="M 80.45479744820244 107.68017299344265 l -6.505304868049335 2.5562214885876715 a27.98951069281561,27.98951069281561 0 0,0 -0.17234304018855728,-0.44993329456028014 l 6.548342187831402 -2.4438646271942335" fill="#ff5c08" stroke="none" /><path d="M 80.32549172779594 107.34259656027581 l -12.896788501973749 4.813127402374904 a34.76565832265695,34.76565832265695 0 0,0 -0.2044150168109494,-0.562462333507396 l 12.977727779789923 -4.590417271861391" fill="#ffb610" stroke="none" /><path d="M 80.20201598880116 107.00284435728193 l -8.094979488927049 2.8633158509613876 a29.586458559180052,29.586458559180052 0 0,0 -0.16569708602275104,-0.48159329306881205 l 8.14306740589303 -2.7235498548032786" fill="#ff720a" stroke="none" /><path d="M 80.0844068197444 106.66101706037122 l -8.052802487162372 2.6933596335944014 a29.491278703064943,29.491278703064943 0 0,0 -0.1568763980272291,-0.48281590757975745 l 8.097971136205851 -2.5543448260368407" fill="#ff700a" stroke="none" /><path d="M 79.97269907076064 106.31721596034903 l -7.994558262234485 2.5217252803344192 a29.382843204888147,29.382843204888147 0 0,0 -0.1479961027965398,-0.4836598269362941 l 8.036781137537156 -2.3837384808460773" fill="#ff6f0a" stroke="none" /><path d="M 79.86692584326677 105.97154293290107 l -9.65491720065053 2.863683515416243 a31.070655858874545,31.070655858874545 0 0,0 -0.14767048721398046,-0.5140603385397756 l 9.702780324750615 -2.6970657013718715" fill="#ff860c" stroke="none" /><path d="M 79.76711848015287 105.62410040840567 l -9.289458865615748 2.582175423146153 a30.64166354587563,30.64166354587563 0 0,0 -0.1368834953012716,-0.5093944079261785 l 9.332530437258795 -2.4218900820444356" fill="#ff800b" stroke="none" /><path d="M 79.67330655649465 105.27499134158121 l -13.761413851112847 3.571232040975653 a35.21725041884301,35.21725041884301 0 0,0 -0.1472226727815251,-0.5880813949932754 l 13.820847838189431 -3.3338228065849855" fill="#ffbb11" stroke="none" /><path d="M 79.50377843672027 104.57218783832718 l -9.860546966586504 2.1996382494543316 a31.10291021976939,31.10291021976939 0 0,0 -0.11206817144029842,-0.5235451875537261 l 9.896949176751242 -2.0295792424844414" fill="#ff860c" stroke="none" /><path d="M 79.4281124754447 104.21870165774334 l -9.593054125948717 1.9672591197893157 a30.792690943135902,30.792690943135902 0 0,0 -0.10201188441778826,-0.5201564008912558 l 9.625495943342171 -1.801838991830105" fill="#ff820c" stroke="none" /><path d="M 79.35854240842038 103.8639653848113 l -9.92495676644816 1.8578963826153692 a31.097353404947278,31.097353404947278 0 0,0 -0.09396370035140231,-0.5269983323163518 l 9.955466909138751 -1.6867792995658037" fill="#ff860c" stroke="none" /><path d="M 79.29508885075956 103.50808413554451 l -10.06406209701325 1.7051788499446028 a31.2074963043264,31.2074963043264 0 0,0 -0.08517899709240435,-0.5304096962041127 l 10.091922848466945 -1.5316899240472763" fill="#ff870c" stroke="none" /><path d="M 79.23777060512086 103.15116336523772 l -9.781072558758655 1.4845109806702277 a30.89308613383266,30.89308613383266 0 0,0 -0.0752701937649283,-0.5264395598805485 l 9.805176803540181 -1.3159259488092787" fill="#ff830c" stroke="none" /><path d="M 79.18660465613746 102.79330883721812 l -8.358751463276574 1.1218051617592226 a29.43369271705923,29.43369271705923 0 0,0 -0.06307008331236684,-0.5027306192080547 l 8.37682305583579 -0.9777567882637593" fill="#ff700a" stroke="none" /><path d="M 79.1416061653843 102.43462659150553 l -18.48915615944137 2.1580852100687946 a39.61467773726224,39.61467773726224 0 0,0 -0.07322621983514466,-0.6779838517200518 l 18.523564680777568 -1.8395050364639607" fill="#fff216" stroke="none" /><path d="M 79.10278846688536 102.07522291339032 l -7.497417816724535 0.7445401612493779 a28.53429585099044,28.53429585099044 0 0,0 -0.04433061533752082,-0.48918464623895175 l 7.509123028339131 -0.61537412646186" fill="#ff6309" stroke="none" /><path d="M 79.07016306316243 101.71520430193888 l -12.325728865008779 1.0100959332648127 a33.367048388686314,33.367048388686314 0 0,0 -0.041984392649654124,-0.572843680949233 l 12.34128981632277 -0.797779115818819" fill="#ffa40f" stroke="none" /><path d="M 79.04373962182676 101.35467743843564 l -10.209903687005683 0.6599997291402776 a31.23121365920962,31.23121365920962 0 0,0 -0.03006175210779964,-0.5367727782276078 l 10.219751790001014 -0.48415523457723214" fill="#ff880c" stroke="none" /><path d="M 79.0235259727143 100.99374915477108 l -10.183905524145773 0.48245703704655996 a31.195327190302553,31.195327190302553 0 0,0 -0.020793716460627457,-0.5365934270466767 l 10.190701373457602 -0.3070863629858866" fill="#ff870c" stroke="none" /><path d="M 79.0095281055655 100.63252640178507 l -16.268029445828297 0.4902204286427572 a37.27541391544299,37.27541391544299 0 0,0 -0.013805992039272208,-0.641510200460926 l 16.27405750055258 -0.21012041239170237" fill="#ffd513" stroke="none" /><line stroke="#e1ed5e" stroke-width="0.3" x1="15.007084014347285" x2="10.007500721073583" y1="101.09737516637583" y2="101.16192664675087" /><path d="M 14.007167355692545 101.11028546245083 a86.0,86.0 0 0,1 10.666146001902534,-42.60595125391555" fill="none" id="id82" stroke="none" /><text fill="#e1ed5e" style="font-size:6.75px; font-family:Arial;" text-anchor="middle"><textPath startOffset="22.20632615414155" xlink:href="#id82">October</textPath></text><path d="M 79.00175016825051 100.2711162175752 l -5.8002103634986435 0.07488867441297778 a26.800693801123483,26.800693801123483 0 0,0 -0.0019854243804575044,-0.46134270412722145 l 5.800640085168604 0.02496350791791905" fill="#ff4c07" stroke="none" /><path d="M 79.00486145842228 99.54816195383935 l -9.239123108142454 -0.1988359031379403 a30.24126244210111,30.24126244210111 0 0,0 0.015679814548410585,-0.5203367095184023 l 9.234331599138399 0.357842760081337" fill="#ff7a0b" stroke="none" /><path d="M 79.01574976396665 99.18683210126434 l -7.481804446282966 -0.28992997757374445 a28.48741992707204,28.48741992707204 0 0,0 0.023205569794729868,-0.4898329017443848 l 7.475705268254737 0.41867398594113836" fill="#ff6309" stroke="none" /><path d="M 79.03285615573316 98.82574320788736 l -8.604267416446715 -0.48187867312594207 a29.61775056666995,29.61775056666995 0 0,0 0.03288897328540238,-0.5087778597210194 l 8.5946978521569 0.6299155970999732" fill="#ff720a" stroke="none" /><path d="M 79.05617556472873 98.46500227214037 l -8.014217270206228 -0.5873714869201564 a29.035713018626197,29.035713018626197 0 0,0 0.04082354354970891,-0.49815063355047356 l 8.00291924283702 0.7252360376784084" fill="#ff6a09" stroke="none" /><path d="M 79.08570108090925 98.10471618934814 l -7.986502332332379 -0.7237483136662032 a29.019228836109193,29.019228836109193 0 0,0 0.049364298310046385,-0.4970917472588606 l 7.972860908340104 0.861115591629494" fill="#ff6a09" stroke="none" /><path d="M 79.12142395522702 97.74499172005258 l -7.750577221524613 -0.8371076538663408 a28.795652409579187,28.795652409579187 0 0,0 0.057467410834134196,-0.4923456812704852 l 7.73501945768689 0.9703970734616877" fill="#ff6709" stroke="none" /><path d="M 79.16333360222342 97.38593545837743 l -5.711129634587982 -0.7164899214386483 a26.7558978023061,26.7558978023061 0 0,0 0.06126336262545655,-0.456483210674227 l 5.697950272904691 0.8146914741775346" fill="#ff4b07" stroke="none" /><path d="M 79.21141760316559 97.0276538004421 l -10.049231871504142 -1.4368366053805537 a31.151431457573665,31.151431457573665 0 0,0 0.08046578892870947,-0.5301690120568444 l 10.023010189136132 1.6096047298294902" fill="#ff870c" stroke="none" /><path d="M 79.26566170972629 96.67025291283419 l -9.601038716914495 -1.5418399301610985 a30.724053414802405,30.724053414802405 0 0,0 0.08835087582253107,-0.521451870360914 l 9.57307597957174 1.7068775888378405" fill="#ff810b" stroke="none" /><path d="M 79.32604984820605 96.31383870115002 l -9.579921793360056 -1.7080981961073916 a30.731007194244604,30.731007194244604 0 0,0 0.09733574747838164,-0.5199714551319287 l 9.549100321971812 1.8727477287018928" fill="#ff810b" stroke="none" /><path d="M 79.3925641242962 95.95851677861259 l -7.620892583938085 -1.4945920344361923 a28.766067803291612,28.766067803291612 0 0,0 0.09947676655390678,-0.4850840421714151 l 7.594036521469183 1.6255517327710096" fill="#ff6709" stroke="none" /><path d="M 79.46518482838121 95.60439243477599 l -9.967176728927019 -2.133537461498492 a31.19296787227752,31.19296787227752 0 0,0 0.11690769798158808,-0.5240742867555366 l 9.928974643943393 2.304789917803988" fill="#ff870c" stroke="none" /><path d="M 79.54389044137918 95.25157060432595 l -7.230661183769999 -1.6784366556495711 a28.42291120528235,28.42291120528235 0 0,0 0.11473002815749024,-0.47563003603665865 l 7.200698355351694 1.8026519233456266" fill="#ff6209" stroke="none" /><path d="M 79.62865764111835 94.90015583598534 l -21.516600475106717 -5.3865527086665645 a43.180600670148806,43.180600670148806 0 0,0 0.18671223489966554,-0.7194784057824855 l 21.420691908336742 5.756127539997914" fill="#e1ff1b" stroke="none" /><path d="M 79.71946130924805 94.55025226153421 l -10.10893014692609 -2.716452459502023 a31.467549029269733,31.467549029269733 0 0,0 0.14507024018499917,-0.5218948398097559 l 10.06067313617473 2.8900586027307216" fill="#ff8b0c" stroke="none" /><path d="M 79.81627453868168 94.20196356495316 l -14.465865204608692 -4.155507053518916 a36.05089681679314,36.05089681679314 0 0,0 0.17646759983812718,-0.5949610199111065 l 14.392191707658856 4.403897460176561" fill="#ffc612" stroke="none" /><path d="M 79.91906864156998 93.8553929516997 l -6.797693104600855 -2.0800406224773043 a28.10881147137085,28.10881147137085 0 0,0 0.14555614787166596,-0.46145276555744724 l 6.760881472960985 2.196743554461166" fill="#ff5e08" stroke="none" /><path d="M 80.02781315780177 93.51064311812611 l -7.05036697407622 -2.290803095547359 a28.413194540258203,28.413194540258203 0 0,0 0.15513970374167177,-0.4638479676333875 l 7.009889976562776 2.4118241661030684" fill="#ff6209" stroke="none" /><path d="M 80.14247586403 93.16781622104843 l -9.636085215501014 -3.3153934322903007 a31.19048437961959,31.19048437961959 0 0,0 0.17904365714347145,-0.5061805290227651 l 9.577588477547732 3.4807715877396768" fill="#ff870c" stroke="none" /><path d="M 80.2630227832202 92.82701384747504 l -7.199056118230214 -2.6163444016854642 a28.65974327387405,28.65974327387405 0 0,0 0.172498097359001,-0.46220914026381404 l 7.152953432369586 2.7398766789786198" fill="#ff6509" stroke="none" /><path d="M 80.52162464483688 92.15188598940014 l -10.022629040848203 -4.038259555239329 a31.80558342367202,31.80558342367202 0 0,0 0.20897527373326252,-0.5060502011151169 l 9.951632080228741 4.210184326807757" fill="#ff8f0d" stroke="none" /><path d="M 80.65960295795068 91.81776055985345 l -9.067991125199741 -3.8363470235999984 a30.84611707893959,30.84611707893959 0 0,0 0.2110892185487605,-0.48722302006029383 l 9.0006111968083 3.9918691882468917" fill="#ff830c" stroke="none" /><path d="M 80.803312248108 91.48605970444005 l -13.839663511031413 -6.1380416437699115 a36.13974376663053,36.13974376663053 0 0,0 0.25710447544155984,-0.5664956311457965 l 13.731956718626503 6.3753592837577795" fill="#ffc712" stroke="none" /><path d="M 80.95270993114464 91.15688171328213 l -12.319403154689967 -5.719550598792111 a34.58237656450182,34.58237656450182 0 0,0 0.2553197201811927,-0.537768445348247 l 12.219125240667022 5.93076145978089" fill="#ffb310" stroke="none" /><path d="M 81.10775173730289 90.83032412892265 l -8.392369745890916 -4.073380218700823 a30.328681383660197,30.328681383660197 0 0,0 0.2319999516481545,-0.4676977456937335 l 8.321009781289348 4.2172375528935175" fill="#ff7c0b" stroke="none" /><path d="M 81.26839172434947 90.50648371742162 l -0.9150557707851794 -0.4637667375688657 a22.025868729673796,22.025868729673796 0 0,0 0.17430912425359082,-0.33670974657801817 l 0.9069372133714746 0.47944920640721933" fill="#ff0801" stroke="none" /><path d="M 81.43458229118936 90.18545643968196 l -1.5327859155963457 -0.8103019481281606 a22.7337883118163,22.7337883118163 0 0,0 0.18586701558193475,-0.34438335156584415 l 1.5186108007959391 0.8365662830264774" fill="#ff1302" stroke="none" /><path d="M 81.6062741919709 89.86733742301443 l -4.224049251245255 -2.3269274652747924 a25.822570217798365,25.822570217798365 0 0,0 0.21782242839393498,-0.3874817948331041 l 4.183369181558889 2.399292770042681" fill="#ff3e05" stroke="none" /><line stroke="#e1ed5e" stroke-width="0.3" x1="26.266209847984243" x2="21.928928074336255" y1="57.711370442889674" y2="55.22380399835377" /><path d="M 25.398753493254645 57.213857153982495 a86.0,86.0 0 0,1 29.58750427330803,-30.492523968695096" fill="none" id="id83" stroke="none" /><text fill="#e1ed5e" style="font-size:6.75px; font-family:Arial;" text-anchor="middle"><textPath startOffset="21.46611528233685" xlink:href="#id83">November</textPath></text><path d="M 81.78341655067845 89.55222093294921 l -11.392375177001643 -6.5338826695683005 a34.133081699024345,34.133081699024345 0 0,0 0.29669827831766177,-0.5071535338048665 l 11.278217224213655 6.729015615727059" fill="#ffae10" stroke="none" /><path d="M 81.96595687620814 89.24020034530311 l -8.221876127445467 -4.905485658972265 a30.57408150192175,30.57408150192175 0 0,0 0.2735422331486052,-0.4496315082088994 l 8.136218096010646 5.046284940388239" fill="#ff7f0b" stroke="none" /><path d="M 82.15384107792192 88.93136811851018 l -8.298305610178254 -5.146815650371298 a30.764813738050655,30.764813738050655 0 0,0 0.28299585813449885,-0.4476314859664474 l 8.208482155797793 5.288894784051961" fill="#ff810b" stroke="none" /><path d="M 82.34701348167596 88.62581576622439 l -8.147313435389371 -5.249482512675246 a30.692047403173355,30.692047403173355 0 0,0 0.2899716891687524,-0.441646776418102 l 8.055745110862699 5.388947353071014" fill="#ff800b" stroke="none" /><path d="M 82.54541684631803 88.32363383020206 l -8.696784330144366 -5.8177750476444725 a31.46329604809303,31.46329604809303 0 0,0 0.305007490705388,-0.4475608566625936 l 8.595352373770238 5.966613927577482" fill="#ff8b0c" stroke="none" /><path d="M 82.7489923806493 88.02491185347247 l -18.258534808708912 -12.67448073673506 a43.22648319700404,43.22648319700404 0 0,0 0.4295629301654501,-0.6075863011242344 l 18.037659258739584 12.98689353819108" fill="#e1ff1b" stroke="none" /><path d="M 82.95767976084542 87.72973835380427 l -6.002240693788814 -4.321539716582961 a28.396120528234945,28.396120528234945 0 0,0 0.2890148864977582,-0.39421598038148337 l 5.926963194777422 4.424218140635945" fill="#ff6209" stroke="none" /><path d="M 83.17141714833178 87.43820079747576 l -7.644881718584658 -5.706568991719291 a30.539871390558787,30.539871390558787 0 0,0 0.3180859359798385,-0.4185638061351572 l 7.5455198423807115 5.837317573735476" fill="#ff7e0b" stroke="none" /><path d="M 83.39014120810768 87.1503855733568 l -7.552959657913297 -5.843073117006304 a30.54927761900069,30.54927761900069 0 0,0 0.32534387049006824,-0.41315367633505357 l 7.451261706829258 5.972219187294405" fill="#ff7f0b" stroke="none" /><path d="M 83.6137871275137 86.86637796730984 l -10.777209137957458 -8.637980751662921 a34.81169606780329,34.81169606780329 0 0,0 0.3787869068986366,-0.4643479595897037 l 10.626923738982429 8.822212880860706" fill="#ffb610" stroke="none" /><path d="M 83.84228863543731 86.58626213691792 l -9.04628013901007 -7.510001118526046 a32.75735094116487,32.75735094116487 0 0,0 0.3639020145167299,-0.4307452045838541 l 8.915667511006218 7.664605272739015" fill="#ff9c0e" stroke="none" /><path d="M 84.07557802195018 86.31012108654704 l -8.540854295177144 -7.3423865104546016 a32.263073814920666,32.263073814920666 0 0,0 0.36566067018760673,-0.41801335686267044 l 8.413201761411694 7.488315423520215" fill="#ff950d" stroke="none" /><path d="M 84.31358615837235 86.03803664274999 l -5.271683182114835 -4.692152595413184 a28.05740317335173,28.05740317335173 0 0,0 0.32420510989587414,-0.3579953798454243 l 5.190134431602916 4.782200762528164" fill="#ff5d08" stroke="none" /><path d="M 84.5562425177563 85.77008943001954 l -7.223377323150108 -6.655635031813362 a30.82215137479058,30.82215137479058 0 0,0 0.3628687155724509,-0.38708304548316796 l 7.107741285607201 6.778987494174579" fill="#ff820c" stroke="none" /><path d="M 84.80347519578584 85.50635884689758 l -10.041702444860556 -9.577244381668105 a34.87657731349167,34.87657731349167 0 0,0 0.41808004140604493,-0.43086823294209614 l 9.875358139751393 9.748676810160326" fill="#ffb711" stroke="none" /><path d="M 85.05521093208273 85.24692304244772 l -6.705338175378104 -6.619321937445895 a30.422153838572974,30.422153838572974 0 0,0 0.3710984140592832,-0.36950479953462506 l 6.590403961151508 6.73376258763063" fill="#ff7d0b" stroke="none" /><path d="M 85.31137513191541 84.99185889309783 l -6.956627988487346 -7.10795295115041 a30.945736178180745,30.945736178180745 0 0,0 0.38389918157929526,-0.3693107085163551 l 6.833245563295623 7.226646746429079" fill="#ff840c" stroke="none" /><path d="M 85.57189188830299 84.74124197986013 l -7.241134308040022 -7.65801831690876 a31.53941509805854,31.53941509805854 0 0,0 0.39768516512797075,-0.36960501969143944 l 7.108241259117194 7.781527922674846" fill="#ff8c0c" stroke="none" /><path d="M 85.83668400450813 84.49514656593479 l -10.916026501285499 -11.949983396450056 a37.18523208830196,37.18523208830196 0 0,0 0.47630565978318756,-0.4276319242128259 l 10.70870985390634 12.13611432943216" fill="#ffd413" stroke="none" /><path d="M 86.10567301691215 84.25364557470407 l -18.67598423413615 -21.16537687287042 a49.227036069774314,49.227036069774314 0 0,0 0.6402004202330632,-0.5551754957864106 l 18.308890015256313 21.483717362076515" fill="#9dff22" stroke="none" /><path d="M 86.37877921826538 84.01681056812374 l -4.865200173541841 -5.7088433734214705 a28.500737656450184,28.500737656450184 0 0,0 0.37613164917099223,-0.314999439213556 l 4.766210987411738 5.791743970028839" fill="#ff6309" stroke="none" /><path d="M 86.65592168130627 83.78471172551755 l -6.29378378861602 -7.648000561170524 a30.9047275056667,30.9047275056667 0 0,0 0.4136768509587196,-0.33449791084530667 l 6.161203539092799 7.7552045692799645" fill="#ff830c" stroke="none" /><path d="M 86.93701828274178 83.55741782278169 l -6.18738872172107 -7.7881642737723915 a30.94682270621859,30.94682270621859 0 0,0 0.41994461869168476,-0.3277734359400245 l 6.052411547869959 7.893516098935637" fill="#ff840c" stroke="none" /><path d="M 87.22198572758235 83.33499621200491 l -6.047972551091573 -7.887726787971539 a30.939527446535923,30.939527446535923 0 0,0 0.42542416909929087,-0.3204206641976123 l 5.911302228233892 7.990664041675006" fill="#ff840c" stroke="none" /><path d="M 87.51073957382395 83.11751280151077 l -7.252749972461394 -9.80397993041231 a33.19509756578299,33.19509756578299 0 0,0 0.46228865510506734,-0.335872368148235 l 7.082916001002545 9.927371533377213" fill="#ffa10e" stroke="none" /><path d="M 87.80319425747018 82.90503203632743 l -5.7411832285534 -8.046807126185941 a30.884952695377944,30.884952695377944 0 0,0 0.4354320356444337,-0.3050479675971434 l 5.601820053325306 8.144439936547027" fill="#ff830c" stroke="none" /><path d="M 88.09926311788651 82.69761687909137 l -3.9817447225818112 -5.789025785731976 a28.02617325317828,28.02617325317828 0 0,0 0.3998338066857721,-0.26996957109389164 l 3.8815062214894995 5.8567072691245325" fill="#ff5d08" stroke="none" /><path d="M 88.39885842347998 82.49532879139004 l -8.507014106053061 -12.836019965039927 a36.39911353109293,36.39911353109293 0 0,0 0.5252443634353566,-0.3416335446008401 l 8.284802716833418 12.980552433800302" fill="#ffca12" stroke="none" /><path d="M 88.70189139769569 82.29822771554957 l -2.7983612343294877 -4.384446555030554 a26.2013649354489,26.2013649354489 0 0,0 0.38226649513938304,-0.23937524418708708 l 2.7224755868178625 4.43196614054057" fill="#ff4306" stroke="none" /><path d="M 89.00827224532344 82.1063720568725 l -3.5016511870248266 -5.700399875767917 a27.690001478269437,27.690001478269437 0 0,0 0.40827975448388515,-0.2459839838031909 l 3.403009366323292 5.759830469029727" fill="#ff5808" stroke="none" /><line stroke="#e1ed5e" stroke-width="0.3" x1="56.762969772571076" x2="54.21961505331055" y1="26.818313649435495" y2="22.513508569990535" /><path d="M 56.25429882871897 25.957352633546506 a86.0,86.0 0 0,1 42.265352541879196,-11.944610805530505" fill="none" id="id84" stroke="none" /><text fill="#e1ed5e" style="font-size:6.75px; font-family:Arial;" text-anchor="middle"><textPath startOffset="22.20632615414155" xlink:href="#id84">December</textPath></text><path d="M 89.3179101791058 81.91981866633112 l -3.367969121946783 -5.7005224138714405 a27.62111560067015,27.62111560067015 0 0,0 0.4114273910877497,-0.23832530071858765 l 3.2693449983937133 5.757651871980076" fill="#ff5708" stroke="none" /><path d="M 89.63071344664047 81.73862282372117 l -4.163033001696117 -7.33152810948585 a29.431022962451955,29.431022962451955 0 0,0 0.4426929137050502,-0.24635812718341407 l 4.036215998919021 7.402101634229449" fill="#ff700a" stroke="none" /><path d="M 89.94658935756843 81.56283822128135 l -6.460359130183802 -11.847788841838463 a34.49467823001872,34.49467823001872 0 0,0 0.5237523343835094,-0.27977035833567465 l 6.255461749271987 11.957237926675887" fill="#ffb210" stroke="none" /><path d="M 90.26544431104013 81.39251694778311 l -0.8257008044892511 -1.5783168966982655 a22.781254065240958,22.781254065240958 0 0,0 0.349029979765101,-0.178786712033647 l 0.7984103371353864 1.5922961340444177" fill="#ff1302" stroke="none" /><path d="M 90.58718382345135 81.22770947309562 l -4.460976350823806 -8.896672634482476 a30.952441608357148,30.952441608357148 0 0,0 0.4783312694330437,-0.23471507654089857 l 4.307173814380336 8.972142871158203" fill="#ff840c" stroke="none" /><path d="M 90.91171255644093 81.06846463323043 l -4.1563666400126165 -8.658001029492706 a30.603976544791564,30.603976544791564 0 0,0 0.4768708545872154,-0.22389726036875487 l 4.006717574125793 8.728263272501469" fill="#ff7f0b" stroke="none" /><path d="M 91.23893434514133 80.91482961587045 l -4.013193181932183 -8.742369784562271 a30.619498373903618,30.619498373903618 0 0,0 0.4808980041567113,-0.2157649166247589 l 3.8621130593086974 8.810155031703559" fill="#ff800b" stroke="none" /><path d="M 91.56875222667455 80.76684994638697 l -3.8481039100568717 -8.77819771329379 a30.58460530205972,30.58460530205972 0 0,0 0.4839886239736715,-0.20721867044994904 l 3.696431528292892 8.843135911706526" fill="#ff7f0b" stroke="none" /><path d="M 91.90106846888425 80.62456947434976 l -3.8454161108885425 -9.199558288952792 a30.97091258500049,30.97091258500049 0 0,0 0.4936411436079949,-0.2013686170686605 l 3.686491097692167 9.26438779220503" fill="#ff840c" stroke="none" /><path d="M 94.28887869178378 79.79150937346287 l -1.9969562937581802 -7.066120708372913 a28.342880654380604,28.342880654380604 0 0,0 0.47062963379345896,-0.12864085705316533 l 1.8750287707409987 7.099448106252375" fill="#ff6108" stroke="none" /><path d="M 94.63758080256005 79.69619591428918 l -1.8693767481415486 -7.078047772686131 a28.320746526066817,28.320746526066817 0 0,0 0.47240503685173274,-0.1204265624304211 l 1.7472628226048164 7.109177331285415" fill="#ff6108" stroke="none" /><path d="M 94.98787191387505 79.60689891045804 l -1.5404773449922304 -6.26781871547578 a27.454349068690256,27.454349068690256 0 0,0 0.459894747248926,-0.10884222807047313 l 1.4323589107807706 6.293406855687125" fill="#ff5507" stroke="none" /><path d="M 95.33964822691252 79.52364482259891 l -3.4173050134202376 -15.014735927959453 a36.39870996353602,36.39870996353602 0 0,0 0.6121175835737369,-0.1337851950432578 l 3.1583447056929796 15.071334621098579" fill="#ffca12" stroke="none" /><path d="M 95.692805502759 79.44645832069477 l -2.133920496780589 -10.182875163635643 a31.404064748201442,31.404064748201442 0 0,0 0.5300312107634079,-0.10631927460439286 l 1.9583228765500447 10.218098394317247" fill="#ff8a0c" stroke="none" /><path d="M 96.04723909329186 79.375362276772 l -2.0472161726086098 -10.681924077302563 a31.87633192076476,31.87633192076476 0 0,0 0.539779959636549,-0.09864133743690764 l 1.8630410918691673 10.715580896090206" fill="#ff900d" stroke="none" /><path d="M 96.40284397218896 79.31037775812273 l -1.8545170338531314 -10.666553403549953 a31.826568936631517,31.826568936631517 0 0,0 0.5405527432620878,-0.08919583427287364 l 1.6706350844521578 10.696895500762453" fill="#ff8f0d" stroke="none" /><path d="M 96.75951476605007 79.25152402106235 l -1.5701247939543697 -10.053338996884358 a31.175210899773333,31.175210899773333 0 0,0 0.5309153552113256,-0.07824312246967317 l 1.3968404583143952 10.078876603515" fill="#ff870c" stroke="none" /><path d="M 97.11714578562143 79.19881850522333 l -1.553591927290358 -11.209913941261446 a32.31705873657239,32.31705873657239 0 0,0 0.5516756940479839,-0.071623338285865 l 1.3604015047345164 11.234995602711448" fill="#ff960d" stroke="none" /><path d="M 97.47563105711357 79.15227682838746 l -3.5228231596229094 -29.093545228926583 a50.30605154232778,50.30605154232778 0 0,0 0.860552796617164,-0.09669313357928519 l 3.0215036594960276 29.14987431597647" fill="#91ff24" stroke="none" /><path d="M 97.83486435360386 79.11191278185805 l -1.4441254187153858 -13.932160670982544 a35.0068054597418,35.0068054597418 0 0,0 0.5999080793238762,-0.05696850070712765 l 1.2040922123012732 13.954954716204853" fill="#ffb911" stroke="none" /><path d="M 98.19473922651362 79.07773832637324 l -1.4081968064834731 -16.32044661133 a37.38108652803785,37.38108652803785 0 0,0 0.6415481103333487,-0.04979648070153652 l 1.1270585067877903 16.342268354219996" fill="#ffd714" stroke="none" /><path d="M 98.55514903715128 79.0497635885617 l -0.6764029841638537 -9.80779526193863 a30.831091948359123,30.831091948359123 0 0,0 0.5297632405087191,-0.03195676538813985 l 0.5074776948155115 9.817985296707075" fill="#ff820c" stroke="none" /><path d="M 98.91598698831166 79.02799685794201 l -0.25712004498535856 -4.974407440848474 a25.981048093032424,25.981048093032424 0 0,0 0.44682350966345374,-0.0192411602443309 l 0.1714557029325807 4.978096327616998" fill="#ff4006" stroke="none" /><path d="M 99.27714615592234 79.0124445844662 l -0.0894929675394267 -2.598365673673434 a23.599906376268848,23.599906376268848 0 0,0 0.4061132179180049,-0.010488706268122342 l 0.04475311442654277 2.599521172083916" fill="#ff1f03" stroke="none" /><path d="M 99.63851952072746 79.00311137660856 l -0.7570447523704884 -43.973562225089076 a64.98007834828029,64.98007834828029 0 0,0 1.1185252316430134,-0.009627499799769615 l 1.0772012435094254e-14 43.98007834828029" fill="#36ff6b" stroke="none" /></svg>